<svg fill="none" height="290" viewBox="0 0 424 290" width="424" xmlns="http://www.w3.org/2000/svg" xmlns:xlink="http://www.w3.org/1999/xlink"><clipPath id="a"><path d="m.852539 0h423v290h-423z"/></clipPath><g clip-path="url(#a)"><path clip-rule="evenodd" d="m207.784 111.549c-13.186 0-25.232-12.196-25.232-19.8398 0-7.6397 4.07-10.5419 7.814-10.5419 20.981-.0282 17.418 30.3817 17.418 30.3817zm-27.856 41.793c-21.899 0-10.909-46.341-3.748-46.341 0 0 10.329 15.613 29.15 15.613-.008-.008-3.507 30.728-25.402 30.728zm226.301-153.342c-5.618 0-10.365 1.73887-13.871 3.63472-3.462 1.87572-4.329 6.46038-1.729 9.40678 3.208 3.6428 6.803 9.2055 6.803 15.8873 0 47.8028-25.724 71.7042-34.196 71.7042-14.73 0 3.261-54.1304 3.261-66.1857 0-2.6043-1.302-19.84-17.257-19.84-7.782 0-13.086 2.3225-16.475 4.7014-2.942 2.0609-3.482 6.1625-1.193 8.9358 3.627 4.3995 8.54 12.5505 8.54 24.4368l-2.438 23.4666c-7.835 26.5461-27.542 45.1621-41.841 45.1621-5.606.016-11.187-.692-16.604-2.113 0 0 41.022-28.4538 41.022-61.3072 0-9.3343-3.86-15.6739-7.149-19.3731-2.188-2.4593-5.944-2.729-8.471-.6198-8.048 6.722-27.179 20.9831-44.605 20.9831-9.543 0-14.484-3.7233-17.007-7.1285-2.301-3.1115-6.879-3.3933-9.459-.5112-3.341 3.7232-5.239 8.646-5.122 13.8505 0 9.7731 7.742 15.5975 16.709 18.3105-1.745 14.9816-20.618 23.6437-20.618 23.6437s.415-41.9542-35.191-41.9542c-19.542 0-25.889 22.9273-25.889 22.9273s-22.899 12.6589-22.951 45.7419c-14.368 37.253-43.1303 67.486-67.2463 67.486-16.7651 0-24.9099-18.661-24.9099-47.36.0322-37.39 35.4929-122.0712 72.8722-122.0712 8.62 0 13.372 7.6599 13.372 21.5266 0 17.3766-15.887 23.0803-25.467 24.9439-4.062.793-6.19 5.3011-4.191 8.9157 2.688 4.8705 7.69 10.1555 16.725 10.1555 16.765 0 34.002-20.0936 34.002-41.6161 0-21.5266-15.802-34.9263-33.079-34.9263-83.7815 0-117.58987 83.3889-120.9429 118.1549-4.56608 47.372 10.4782 87.551 56.3083 87.551 58.3436 0 84.7926-74.14 84.7926-74.14l-.096-2.27c5.626 19.1 21.113 23.245 30.616 23.245 27.84 0 50.312-29.753 50.312-53.172 0 0 29.871-11.166 31.878-35.0227.782.0402 1.555.0644 2.305.0644 16.281 0 34.195-12.3573 34.195-12.3573 1.233 1.5779 1.923 3.518 1.959 5.5226 0 16.9137-32.725 40.815-32.725 40.815s-30.447-.817-30.447 17.723c0 5.522 1.064 9.467 2.394 12.248 1.608 3.365 5.88 4.372 8.979 2.283 3.76-2.54 10.748-5.454 22.984-5.454 48.03 0 70.171-36.42 70.171-46.3421 0 0 .327 19.5181 19.216 19.5181 21.367 0 37.613-30.2331 37.613-30.2331s-30.262 142.6071-90.359 142.6071c-25.518 0-10.748-71.225 38.749-71.225.21 0 .403.004.597.012 1.821.061 3.268-1.586 2.841-3.361-1.314-5.446-5.912-11.934-20.05-11.934h-.056c-51.126 0-157.137 110.752-250.4052 110.752-28.9924 0-48.1393-9.459-58.4603-16.596-4.2639-2.95-10.09136.471-9.55133 5.623 1.7813 17.103 12.75123 44.47 64.73923 44.47 95.0136 0 199.5896-113.014 211.7126-113.014-9.697 8.988-15.234 21.583-15.302 34.801 0 11.701 3.461 33.172 34.844 33.172 101.469 0 121.761-213.0077 121.761-224.4029 0-11.39524-4.542-19.8521-16.919-19.8521" fill="#d5ad8f" fill-rule="evenodd"/></g></svg>